<svg width="40" height="40" viewBox="0 0 40 40" fill="none" xmlns="http://www.w3.org/2000/svg">
<g clip-path="url(#clip0_1_314)">
<mask id="mask0_1_314" style="mask-type:alpha" maskUnits="userSpaceOnUse" x="0" y="0" width="40" height="40">
<path d="M0 0H40V40H0V0Z" fill="white"/>
</mask>
<g mask="url(#mask0_1_314)">
<path d="M18.3334 30H13.2351C12.7401 27.8783 10.5067 26.1433 9.59006 25C8.02037 23.0388 7.03664 20.6741 6.75216 18.1782C6.46769 15.6824 6.89406 13.157 7.98214 10.8929C9.07023 8.62876 10.7758 6.71808 12.9023 5.38093C15.0289 4.04378 17.4899 3.33456 20.0019 3.33496C22.5139 3.33536 24.9746 4.04537 27.1007 5.3832C29.2269 6.72103 30.9318 8.63226 32.0191 10.8967C33.1065 13.1612 33.5321 15.6867 33.2468 18.1825C32.9615 20.6782 31.977 23.0426 30.4067 25.0033C29.4901 26.145 27.2601 27.88 26.7651 30H21.6667V21.6666H18.3334V30ZM26.6667 33.3333V35C26.6667 35.884 26.3155 36.7319 25.6904 37.357C25.0653 37.9821 24.2174 38.3333 23.3334 38.3333H16.6667C15.7827 38.3333 14.9348 37.9821 14.3097 37.357C13.6846 36.7319 13.3334 35.884 13.3334 35V33.3333H26.6667Z" fill="#F5F5F5"/>
</g>
</g>
<defs>
<clipPath id="clip0_1_314">
<rect width="40" height="40" fill="white"/>
</clipPath>
</defs>
</svg>
