<svg width="40" height="40" viewBox="0 0 40 40" fill="none" xmlns="http://www.w3.org/2000/svg">
<g clip-path="url(#clip0_1_322)">
<mask id="mask0_1_322" style="mask-type:alpha" maskUnits="userSpaceOnUse" x="0" y="0" width="40" height="40">
<path d="M0 0H40V40H0V0Z" fill="white"/>
</mask>
<g mask="url(#mask0_1_322)">
<path d="M15 21.6666V26.6666H25V21.6666H36.6667V33.3333C36.6667 33.7753 36.4911 34.1992 36.1786 34.5118C35.866 34.8244 35.4421 35 35 35H5.00004C4.55801 35 4.13409 34.8244 3.82153 34.5118C3.50897 34.1992 3.33337 33.7753 3.33337 33.3333V21.6666H15ZM18.3334 18.3333H21.6667V23.3333H18.3334V18.3333ZM11.6667 8.33329V3.33329C11.6667 2.89127 11.8423 2.46734 12.1549 2.15478C12.4674 1.84222 12.8913 1.66663 13.3334 1.66663H26.6667C27.1087 1.66663 27.5327 1.84222 27.8452 2.15478C28.1578 2.46734 28.3334 2.89127 28.3334 3.33329V8.33329H35C35.4421 8.33329 35.866 8.50889 36.1786 8.82145C36.4911 9.13401 36.6667 9.55793 36.6667 9.99996V18.3333H25V15H15V18.3333H3.33337V9.99996C3.33337 9.55793 3.50897 9.13401 3.82153 8.82145C4.13409 8.50889 4.55801 8.33329 5.00004 8.33329H11.6667ZM15 4.99996V8.33329H25V4.99996H15Z" fill="#F5F5F5"/>
</g>
</g>
<defs>
<clipPath id="clip0_1_322">
<rect width="40" height="40" fill="white"/>
</clipPath>
</defs>
</svg>
