<svg width="40" height="40" viewBox="0 0 40 40" fill="none" xmlns="http://www.w3.org/2000/svg">
<g clip-path="url(#clip0_1_330)">
<mask id="mask0_1_330" style="mask-type:alpha" maskUnits="userSpaceOnUse" x="0" y="0" width="40" height="40">
<path d="M0 0H40V40H0V0Z" fill="white"/>
</mask>
<g mask="url(#mask0_1_330)">
<path d="M30.6067 18.3C33.21 20.9016 33.21 25.1233 30.6067 27.7266L21.1784 37.155C20.5284 37.805 19.4717 37.805 18.8217 37.155L9.39336 27.7266C6.79002 25.1233 6.79002 20.9016 9.39336 18.2983C11.9967 15.695 16.2184 15.695 18.8217 18.2983L19.9984 19.4766L21.1784 18.2983C23.7817 15.695 28.0034 15.695 30.6067 18.2983V18.3ZM20 1.66663C23.6834 1.66663 26.6667 4.64996 26.6667 8.33329C26.6667 12.0166 23.6834 15 20 15C16.3167 15 13.3334 12.0166 13.3334 8.33329C13.3334 4.64996 16.3167 1.66663 20 1.66663Z" fill="#F5F5F5"/>
</g>
</g>
<defs>
<clipPath id="clip0_1_330">
<rect width="40" height="40" fill="white"/>
</clipPath>
</defs>
</svg>
