<svg width="40" height="41" viewBox="0 0 40 41" fill="none" xmlns="http://www.w3.org/2000/svg">
<mask id="mask0_1_114" style="mask-type:alpha" maskUnits="userSpaceOnUse" x="0" y="0" width="40" height="41">
<path d="M0 0.270508H40V40.2705H0V0.270508Z" fill="white"/>
</mask>
<g mask="url(#mask0_1_114)">
<path d="M5.00004 5.27051H35C35.4421 5.27051 35.866 5.4461 36.1786 5.75866C36.4911 6.07122 36.6667 6.49515 36.6667 6.93717V33.6038C36.6667 34.0459 36.4911 34.4698 36.1786 34.7824C35.866 35.0949 35.4421 35.2705 35 35.2705H5.00004C4.55801 35.2705 4.13409 35.0949 3.82153 34.7824C3.50897 34.4698 3.33337 34.0459 3.33337 33.6038V6.93717C3.33337 6.49515 3.50897 6.07122 3.82153 5.75866C4.13409 5.4461 4.55801 5.27051 5.00004 5.27051ZM33.3334 16.9372H6.66671V31.9372H33.3334V16.9372ZM8.33337 10.2705V13.6038H11.6667V10.2705H8.33337ZM15 10.2705V13.6038H18.3334V10.2705H15Z" fill="#F5F5F5"/>
</g>
</svg>
