<svg width="40" height="41" viewBox="0 0 40 41" fill="none" xmlns="http://www.w3.org/2000/svg">
<mask id="mask0_1_418" style="mask-type:alpha" maskUnits="userSpaceOnUse" x="0" y="0" width="40" height="41">
<path d="M0 0.270508H40V40.2705H0V0.270508Z" fill="white"/>
</mask>
<g mask="url(#mask0_1_418)">
<path d="M21.6667 30.2705V33.6038H28.3333V36.9372H11.6667V33.6038H18.3333V30.2705H4.98665C4.7678 30.2692 4.55135 30.2247 4.34972 30.1396C4.14808 30.0545 3.96523 29.9304 3.81164 29.7745C3.65805 29.6186 3.53673 29.4339 3.45465 29.231C3.37257 29.0281 3.33134 28.811 3.33332 28.5922V6.94884C3.33332 6.02217 4.09165 5.27051 4.98665 5.27051H35.0133C35.9267 5.27051 36.6667 6.01884 36.6667 6.94884V28.5922C36.6667 29.5188 35.9083 30.2705 35.0133 30.2705H21.6667Z" fill="#F5F5F5"/>
</g>
</svg>
